<svg xmlns="http://www.w3.org/2000/svg" viewBox="-1,-1,23,23.3333">
  <g>
<path fill="#DADADA" fill-rule="nonzero" stroke="#DADADA" d="M 0,10.6667C 0,4.776 4.776,0 10.6667,0C 16.5573,0 21.3333,4.776 21.3333,10.6667C 21.3333,16.5573 16.5573,21.3333 10.6667,21.3333C 4.776,21.3333 0,16.5573 0,10.6667 Z " />
<path fill="#329932" fill-rule="nonzero" stroke="#329932" d="M 8,16L 8,5.33333L 16,10.6667M 10.6667,1.33333C 5.51333,1.33333 1.33333,5.51333 1.33333,10.6667C 1.33333,15.82 5.51333,20 10.6667,20C 15.82,20 20,15.82 20,10.6667C 20,5.51333 15.82,1.33333 10.6667,1.33333 Z " />
<path fill="#FFFFFF" fill-rule="nonzero" stroke="#FFFFFF" d="M 8,5.33333L 16,10.6667L 8,16L 8,5.33333 Z " />
  </g>
</svg>
